<svg viewBox="0 0 600 600" width="16" height="16" xmlns="http://www.w3.org/2000/svg"><path style="-inkscape-stroke:none" d="M573.734 237.531a42.016 42.067 0 0 0-13.715-29.123L328.862-1.862a42.016 42.067 0 0 0-.051-.035 42.016 42.067 0 0 0-28.203-11.547 42.016 42.067 0 0 0-28.2 11.545 42.016 42.067 0 0 0-.055.037L41.196 208.408a42.016 42.067 0 0 0-2.845 59.424 42.016 42.067 0 0 0 59.351 2.848l160.89-146.352V576.6a42.016 42.067 0 0 0 42.016 42.066 42.016 42.067 0 0 0 42.016-42.066V124.328L503.51 270.68a42.016 42.067 0 0 0 59.353-2.848 42.016 42.067 0 0 0 10.87-30.3z" fill="#fff" transform="matrix(.95173 0 0 .95116 13.901 12.169)"/></svg>